<svg xmlns="http://www.w3.org/2000/svg" viewBox="0 0 1280 600"><defs><style>.cls-1{fill:#122319;}.cls-2{fill:#2d3f63;}.cls-3{fill:#3d2c44;}.cls-4{fill:#474747;}.cls-10,.cls-5,.cls-7{fill:#f4ebc9;}.cls-10,.cls-5,.cls-6{stroke:#474747;stroke-miterlimit:10;}.cls-5,.cls-6{stroke-width:1.67px;}.cls-6{fill:none;}.cls-8{fill:#253814;}.cls-9{fill:#020202;}.cls-10{stroke-width:1.33px;}</style></defs><title>Recurso 1</title><g id="Capa_2" data-name="Capa 2"><g id="Capa_1-2" data-name="Capa 1"><rect class="cls-1" y="294.24" width="1280" height="305.76"/><rect class="cls-2" width="1280" height="292.24"/><path class="cls-3" d="M0,206.56c109.91,0,227.09,24.89,337,24.89,138.63,0,302.37-34.45,441-34.45,96.54,0,243.46,28.9,340,28.9,81.59,0,80.41-19.34,162-19.34v87.68H0Z"/><rect class="cls-4" x="690.55" y="408.13" width="279.28" height="8.34"/><polygon class="cls-5" points="702.23 408.13 718.48 355.19 754.33 311.84 786.01 286 824.36 277.66 869.37 287.67 901.05 311.01 933.57 353.52 951.84 408.13 702.23 408.13"/><polyline class="cls-6" points="752.35 314.23 735.57 354.77 718.9 354.77 708.78 408.13 735.57 354.77 735.57 408.13 760.58 363.95 776.59 408.13 800.6 354.77 827.27 409.8 852.28 354.77 878.13 409.8 891.47 359.78 918.98 409.8 918.98 354.77 943.99 409.8 933.98 354.77"/><polyline class="cls-6" points="786.42 285.58 801.43 289.75 826.44 277.24 853.12 288.08 869.79 287.25 901.47 310.59 918.98 353.11 933.98 353.11"/><polygon class="cls-6" points="901.47 310.59 853.12 288.08 801.43 289.75 754.74 310.59 774.75 320.6 735.57 354.77 760.58 363.95 800.6 354.77 852.28 354.77 891.47 359.78 918.98 353.11 878.13 322.26 901.47 310.59"/><polyline class="cls-6" points="760.58 363.95 774.75 320.6 826.44 312.26 801.43 289.75 774.75 320.6 801.43 354.77 826.44 312.26 852.28 353.11 878.13 322.26 891.47 359.78"/><polygon class="cls-6" points="853.12 288.08 826.44 312.26 878.13 322.26 853.12 288.08"/><path class="cls-7" d="M79.51,86a1.32,1.32,0,0,0,0-2.63,1.32,1.32,0,0,0,0,2.63Z"/><path class="cls-7" d="M193.09,63.24a1.32,1.32,0,0,0,0-2.63,1.32,1.32,0,0,0,0,2.63Z"/><path class="cls-7" d="M193.09,125a1.32,1.32,0,0,0,0-2.63,1.32,1.32,0,0,0,0,2.63Z"/><path class="cls-7" d="M312.84,30a1.32,1.32,0,0,0,0-2.63,1.32,1.32,0,0,0,0,2.63Z"/><path class="cls-7" d="M272.1,60.39a1.32,1.32,0,0,0,0-2.63,1.32,1.32,0,0,0,0,2.63Z"/><path class="cls-7" d="M352.35,87a1.32,1.32,0,0,0,0-2.64,1.32,1.32,0,0,0,0,2.64Z"/><path class="cls-7" d="M417.78,57.54a1.32,1.32,0,0,0,0-2.63,1.32,1.32,0,0,0,0,2.63Z"/><path class="cls-7" d="M810.37,28.11a1.32,1.32,0,0,0,0-2.63,1.32,1.32,0,0,0,0,2.63Z"/><path class="cls-7" d="M948.64,72.73a1.32,1.32,0,0,0,0-2.63,1.32,1.32,0,0,0,0,2.63Z"/><path class="cls-7" d="M691.85,70.83a1.32,1.32,0,0,0,0-2.63,1.32,1.32,0,0,0,0,2.63Z"/><path class="cls-7" d="M643.7,37.6a1.32,1.32,0,0,0,0-2.63,1.32,1.32,0,0,0,0,2.63Z"/><path class="cls-7" d="M580.74,62.29a1.32,1.32,0,0,0,0-2.63,1.32,1.32,0,0,0,0,2.63Z"/><path class="cls-7" d="M500.49,137.3a1.32,1.32,0,0,0,0-2.63,1.32,1.32,0,0,0,0,2.63Z"/><path class="cls-7" d="M333.83,168.34a1.5,1.5,0,0,0,0-3,1.5,1.5,0,0,0,0,3Z"/><path class="cls-7" d="M1135.06,149.64a1.32,1.32,0,0,0,0-2.63,1.32,1.32,0,0,0,0,2.63Z"/><path class="cls-7" d="M1177,82.23a1.32,1.32,0,0,0,0-2.63,1.32,1.32,0,0,0,0,2.63Z"/><path class="cls-7" d="M1064.69,27.16a1.32,1.32,0,0,0,0-2.63,1.32,1.32,0,0,0,0,2.63Z"/><path class="cls-7" d="M1254.81,14.82a1.32,1.32,0,0,0,0-2.63,1.32,1.32,0,0,0,0,2.63Z"/><path class="cls-7" d="M1235.06,11a1.32,1.32,0,0,0,0-2.63,1.32,1.32,0,0,0,0,2.63Z"/><path class="cls-7" d="M989.38,162.93a1.32,1.32,0,0,0,0-2.63,1.32,1.32,0,0,0,0,2.63Z"/><path class="cls-7" d="M772.1,27.16a1.32,1.32,0,0,0,0-2.63,1.32,1.32,0,0,0,0,2.63Z"/><path class="cls-7" d="M1127.65,115.46a1.32,1.32,0,0,0,0-2.63,1.32,1.32,0,0,0,0,2.63Z"/><path class="cls-7" d="M41.23,40.45a1.32,1.32,0,0,0,0-2.63,1.32,1.32,0,0,0,0,2.63Z"/><path class="cls-8" d="M1097.92,295c-5.61-28-3.82-46.24,7-56.09,30.85-28,70-6.2,81.33,4.21,33.66,30.85,28,71.51,28,71.51,39.26-11.21,46.27,14,39.26,49.08-2.1,10.48-15.9,27.88-19.63,37.86-2.19,5.86-21,35.06-25.24,40.67-8.15,10.86-49.91,29.69-53.29,28h-9.81s-46.28-11.21-67.31-51.88c-13.83-26.74,6.81-30.1,6.41-31.4,0,0-16.23-24.69-19-41.52-4.21-25.24-1.4-58.89,32.25-50.48"/><polygon class="cls-9" points="1146.59 526.31 1152.97 289.34 1155.1 526.39 1146.59 526.31"/><path class="cls-9" d="M1148.93,449c4.57-5.84,9.27-11.45,14.13-17s9.88-10.89,15.13-16a151.72,151.72,0,0,1,16.68-14.42,59.7,59.7,0,0,1,9.46-5.7,26.63,26.63,0,0,1,5.21-1.83,13.28,13.28,0,0,1,5.47-.19,13.21,13.21,0,0,0-5.38.53,26.44,26.44,0,0,0-5,2.12,58,58,0,0,0-8.91,6.18,150,150,0,0,0-15.52,15.25c-4.85,5.41-9.45,11-13.9,16.78s-8.77,11.63-12.83,17.57Z"/><path class="cls-9" d="M1148.61,413.1c2.13-4.54,4.38-8.91,6.75-13.26s4.85-8.62,7.53-12.78a105.61,105.61,0,0,1,8.75-12,44.3,44.3,0,0,1,5.29-5.23,15,15,0,0,1,6.53-3.36,14.65,14.65,0,0,0-6.07,3.89,42.7,42.7,0,0,0-4.64,5.57,103.72,103.72,0,0,0-7.44,12.52c-2.22,4.32-4.25,8.75-6.17,13.22s-3.72,9-5.34,13.53Z"/><path class="cls-9" d="M1149,437c-3-4-6.43-8-9.9-11.82a139.8,139.8,0,0,0-11.05-10.86c-1.94-1.7-4-3.31-6-4.83a54.87,54.87,0,0,0-6.51-4.17,35.84,35.84,0,0,0-7.11-3,19,19,0,0,0-7.7-.74,19.45,19.45,0,0,1,7.86.06,36.4,36.4,0,0,1,7.56,2.42,57.58,57.58,0,0,1,7.06,3.67q3.4,2.06,6.62,4.4a141,141,0,0,1,12.28,10.07c3.92,3.59,7.65,7.27,11.28,11.27Z"/><path class="cls-9" d="M1150.59,367.07c-1-3.87-2.22-7.81-3.54-11.65s-2.82-7.65-4.5-11.36a65.89,65.89,0,0,0-5.94-10.64,27.28,27.28,0,0,0-4-4.59,12.87,12.87,0,0,0-5.25-3,13,13,0,0,1,5.58,2.62,28.36,28.36,0,0,1,4.49,4.34,67.89,67.89,0,0,1,7,10.33c2,3.63,3.86,7.37,5.55,11.16s3.24,7.64,4.64,11.62Z"/><path class="cls-8" d="M437.45,244c-4.23-21.14-2.88-34.87,5.29-42.29,23.26-21.15,52.76-4.68,61.32,3.17a65.91,65.91,0,0,1,21.15,53.92c29.6-8.46,34.89,10.58,29.6,37-1.58,7.9-12,21-14.8,28.54-1.65,4.42-15.86,26.44-19,30.67-6.15,8.19-37.63,22.38-40.18,21.14h-7.4s-34.89-8.46-50.75-39.12c-10.43-20.16,5.14-22.69,4.84-23.67,0,0-12.24-18.62-14.36-31.31-3.17-19-1.05-44.4,24.32-38.06"/><polygon class="cls-9" points="474.15 418.44 478.96 239.77 480.57 418.5 474.15 418.44"/><path class="cls-9" d="M475.91,360.13c3.45-4.4,7-8.63,10.66-12.79s7.44-8.21,11.4-12.09c2-1.95,4-3.84,6.09-5.66s4.24-3.59,6.5-5.21a44,44,0,0,1,7.12-4.3,14.06,14.06,0,0,1,8.05-1.53,13.7,13.7,0,0,0-7.81,2,43.08,43.08,0,0,0-6.72,4.66c-2.11,1.73-4.12,3.59-6.06,5.53s-3.82,3.92-5.64,6c-3.66,4.07-7.13,8.32-10.49,12.65s-6.6,8.77-9.67,13.25Z"/><path class="cls-9" d="M475.67,333.08c1.61-3.42,3.3-6.71,5.09-10s3.66-6.5,5.67-9.64a81.1,81.1,0,0,1,6.61-9,33.66,33.66,0,0,1,4-3.94,11.36,11.36,0,0,1,4.93-2.54,11,11,0,0,0-4.58,2.94,31.31,31.31,0,0,0-3.5,4.2,78.43,78.43,0,0,0-5.6,9.44c-1.68,3.26-3.21,6.59-4.66,10s-2.8,6.8-4,10.21Z"/><path class="cls-9" d="M476,351.07c-2.3-3-4.85-6.05-7.47-8.92a103.72,103.72,0,0,0-8.33-8.18q-2.19-1.92-4.55-3.65a42.11,42.11,0,0,0-4.91-3.14,27.43,27.43,0,0,0-5.36-2.26,14.56,14.56,0,0,0-5.8-.56,14.76,14.76,0,0,1,5.92,0,27.86,27.86,0,0,1,5.7,1.83,44,44,0,0,1,5.32,2.77c1.72,1,3.38,2.14,5,3.31a105.19,105.19,0,0,1,9.25,7.6c3,2.7,5.77,5.48,8.51,8.5Z"/><path class="cls-9" d="M477.17,298.38c-.76-2.92-1.68-5.89-2.68-8.78s-2.12-5.77-3.39-8.57a49.53,49.53,0,0,0-4.48-8,20.26,20.26,0,0,0-3-3.46,9.54,9.54,0,0,0-4-2.28,9.92,9.92,0,0,1,4.22,2,21.4,21.4,0,0,1,3.38,3.28,50.73,50.73,0,0,1,5.27,7.79c1.53,2.73,2.91,5.55,4.18,8.41s2.44,5.76,3.51,8.76Z"/><path class="cls-8" d="M958.57,196.51c-4.12-20.59-2.8-34,5.15-41.19,22.66-20.6,51.39-4.55,59.73,3.09a64.2,64.2,0,0,1,20.6,52.52c28.84-8.24,34,10.3,28.84,36-1.54,7.69-11.68,20.47-14.42,27.8-1.61,4.3-15.45,25.75-18.54,29.87-6,8-36.65,21.8-39.13,20.59h-7.21s-34-8.23-49.43-38.1c-10.16-19.64,5-22.11,4.71-23.06,0,0-11.92-18.13-14-30.49-3.09-18.54-1-43.26,23.68-37.08"/><polygon class="cls-9" points="994.32 366.42 999 192.38 1000.57 366.48 994.32 366.42"/><path class="cls-9" d="M996,309.62c3.35-4.29,6.81-8.4,10.38-12.46s7.25-8,11.1-11.78c1.93-1.89,3.9-3.73,5.94-5.51s4.12-3.49,6.32-5.07a42.53,42.53,0,0,1,6.94-4.19,13.69,13.69,0,0,1,7.84-1.49,13.44,13.44,0,0,0-7.61,1.95,42.17,42.17,0,0,0-6.54,4.54c-2.06,1.69-4,3.51-5.9,5.39s-3.72,3.82-5.5,5.81c-3.56,4-6.94,8.1-10.21,12.32s-6.44,8.54-9.42,12.9Z"/><path class="cls-9" d="M995.8,283.27c1.57-3.33,3.22-6.53,5-9.73s3.56-6.33,5.52-9.39a79,79,0,0,1,6.44-8.8,31.28,31.28,0,0,1,3.88-3.84,10.94,10.94,0,0,1,4.79-2.47,10.78,10.78,0,0,0-4.45,2.85,30.4,30.4,0,0,0-3.41,4.1,75.14,75.14,0,0,0-5.46,9.19c-1.63,3.18-3.13,6.42-4.53,9.71s-2.74,6.62-3.92,9.94Z"/><path class="cls-9" d="M996.11,300.8c-2.24-3-4.72-5.9-7.27-8.69a100.11,100.11,0,0,0-8.12-8,52.87,52.87,0,0,0-9.21-6.61,26.91,26.91,0,0,0-5.22-2.21,14.23,14.23,0,0,0-5.66-.54,14.38,14.38,0,0,1,5.77,0A27.09,27.09,0,0,1,972,276.6a54.15,54.15,0,0,1,10,5.92,104.94,104.94,0,0,1,9,7.4c2.88,2.64,5.62,5.34,8.29,8.28Z"/><path class="cls-9" d="M997.26,249.47c-.74-2.84-1.63-5.73-2.61-8.55s-2.06-5.63-3.3-8.35a48.44,48.44,0,0,0-4.36-7.81,20.48,20.48,0,0,0-2.93-3.37,9.46,9.46,0,0,0-3.86-2.22,9.5,9.5,0,0,1,4.1,1.92,20.69,20.69,0,0,1,3.29,3.19,49.37,49.37,0,0,1,5.14,7.59c1.49,2.66,2.84,5.41,4.08,8.2s2.37,5.6,3.41,8.53Z"/><path class="cls-8" d="M249.87,251.86c-2.66-13.34-1.81-22,3.34-26.69,14.68-13.34,33.29-2.95,38.69,2a41.58,41.58,0,0,1,13.34,34c18.68-5.34,22,6.67,18.68,23.35-1,5-7.56,13.26-9.34,18-1,2.78-10,16.67-12,19.34-3.87,5.17-23.74,14.13-25.35,13.34h-4.66s-22-5.33-32-24.68c-6.58-12.72,3.25-14.32,3.06-14.94,0,0-7.72-11.74-9.06-19.75-2-12-.67-28,15.34-24"/><polygon class="cls-9" points="273.03 361.92 276.06 249.18 277.08 361.95 273.03 361.92"/><path class="cls-9" d="M274.14,325.12c2.17-2.78,4.41-5.44,6.72-8.07s4.7-5.18,7.2-7.63a70.94,70.94,0,0,1,7.94-6.85,28.11,28.11,0,0,1,4.49-2.72,8.86,8.86,0,0,1,5.09-1,8.78,8.78,0,0,0-4.94,1.26,27.39,27.39,0,0,0-4.23,3,68.36,68.36,0,0,0-7.39,7.25c-2.31,2.57-4.5,5.25-6.61,8s-4.17,5.53-6.1,8.35Z"/><path class="cls-9" d="M274,308.06c1-2.16,2.08-4.24,3.21-6.31s2.31-4.1,3.58-6.08A50.43,50.43,0,0,1,285,290a20.36,20.36,0,0,1,2.51-2.49,7.18,7.18,0,0,1,3.11-1.6,7,7,0,0,0-2.89,1.85,20.7,20.7,0,0,0-2.21,2.65,50.21,50.21,0,0,0-3.53,6c-1.06,2.05-2,4.16-2.94,6.29s-1.77,4.29-2.54,6.43Z"/><path class="cls-9" d="M274.19,319.41c-1.45-1.92-3.06-3.82-4.71-5.63a65.66,65.66,0,0,0-5.26-5.16,33.52,33.52,0,0,0-6-4.28,12,12,0,0,0-7-1.78,12.3,12.3,0,0,1,7.33,1.18,34.86,34.86,0,0,1,6.51,3.83,68.82,68.82,0,0,1,5.84,4.79c1.86,1.71,3.64,3.46,5.37,5.37Z"/><path class="cls-9" d="M274.93,286.16c-.48-1.84-1.05-3.71-1.69-5.54s-1.33-3.64-2.13-5.41a31.33,31.33,0,0,0-2.83-5.06,13.15,13.15,0,0,0-1.9-2.18,6.08,6.08,0,0,0-2.5-1.44,6.27,6.27,0,0,1,2.66,1.25,13,13,0,0,1,2.13,2.07,32.11,32.11,0,0,1,3.33,4.91c1,1.73,1.84,3.5,2.64,5.31s1.54,3.63,2.21,5.53Z"/><path class="cls-8" d="M79.23,305.21c-6.72-33.61-4.58-55.42,8.4-67.22,37-33.6,83.85-7.43,97.46,5,40.33,37,33.61,85.69,33.61,85.69,47-13.44,55.45,16.8,47,58.81-2.51,12.56-19,33.4-23.52,45.37-2.62,7-25.2,42-30.24,48.73-9.77,13-59.8,35.58-63.86,33.6H136.36S80.91,501.8,55.71,453.07c-16.58-32,8.16-36.07,7.68-37.62,0,0-19.44-29.59-22.81-49.75-5-30.25-1.68-70.58,38.65-60.49"/><polygon class="cls-9" points="137.55 582.43 145.19 298.47 147.75 582.52 137.55 582.43"/><path class="cls-9" d="M140.36,489.75c5.47-7,11.11-13.71,16.93-20.33s11.83-13.05,18.12-19.22a181.86,181.86,0,0,1,20-17.28,70.44,70.44,0,0,1,11.33-6.83A32.33,32.33,0,0,1,213,423.9a15.79,15.79,0,0,1,6.56-.23,15.61,15.61,0,0,0-6.45.63,31.79,31.79,0,0,0-6,2.54,69.94,69.94,0,0,0-10.68,7.41,180.13,180.13,0,0,0-18.59,18.27c-5.81,6.48-11.33,13.23-16.66,20.11s-10.51,13.93-15.37,21.05Z"/><path class="cls-9" d="M140,446.77c2.56-5.44,5.25-10.67,8.09-15.89s5.82-10.32,9-15.32a127.73,127.73,0,0,1,10.49-14.36,53.64,53.64,0,0,1,6.34-6.27,18,18,0,0,1,7.82-4,17.64,17.64,0,0,0-7.27,4.66,52.47,52.47,0,0,0-5.57,6.68,125.69,125.69,0,0,0-8.9,15c-2.66,5.18-5.1,10.48-7.4,15.84s-4.45,10.81-6.39,16.22Z"/><path class="cls-9" d="M140.47,475.35c-3.65-4.83-7.7-9.61-11.86-14.17a165.72,165.72,0,0,0-13.24-13q-3.5-3.06-7.24-5.8a65.69,65.69,0,0,0-7.8-5,43,43,0,0,0-8.51-3.6,22.83,22.83,0,0,0-9.23-.88A23.53,23.53,0,0,1,92,433a44.51,44.51,0,0,1,9.06,2.91,69.11,69.11,0,0,1,8.45,4.4q4.1,2.45,7.94,5.26a170,170,0,0,1,14.71,12.07c4.69,4.3,9.17,8.71,13.52,13.51Z"/><path class="cls-9" d="M142.35,391.62c-1.21-4.65-2.66-9.36-4.25-14s-3.37-9.17-5.39-13.61a77.53,77.53,0,0,0-7.12-12.75,32.54,32.54,0,0,0-4.78-5.5,15.28,15.28,0,0,0-6.29-3.62,15.62,15.62,0,0,1,6.69,3.14,33.44,33.44,0,0,1,5.37,5.2A80.84,80.84,0,0,1,135,362.89c2.44,4.35,4.63,8.83,6.65,13.38s3.88,9.14,5.57,13.92Z"/><circle class="cls-10" cx="306" cy="110" r="29.5"/></g></g></svg>