<svg xmlns="http://www.w3.org/2000/svg" viewBox="0 0 62.15 42.27"><defs><style>.cls-1{fill:#f6f6f6;}.cls-2{fill:#ff4121;}.cls-3{fill:#ffef31;}.cls-4{fill:#1d1d1b;}.cls-5{fill:#99b815;}.cls-6{fill:#fbbe3a;}</style></defs><title>Recurso 1</title><g id="Capa_2" data-name="Capa 2"><g id="Capa_1-2" data-name="Capa 1"><path class="cls-1" d="M56.7,23.55c-.24.19-.49.36-.72.55,0-1.57-1.33-3.19-2.34-4.27a10.11,10.11,0,0,0-3.83-2.47l1.93-.43a13.24,13.24,0,0,1,3,3.18C55.51,21.2,56,22.43,56.7,23.55Z"/><path class="cls-1" d="M58.43,22.29c-.3.21-.61.4-.9.62a12,12,0,0,0-4.7-6.23c.4-.08.78-.15,1.17-.24a.37.37,0,0,0,.14.3,15.46,15.46,0,0,1,2.91,3.08A19.94,19.94,0,0,1,58.43,22.29Z"/><path class="cls-1" d="M39.5,21.3c-.44.29-.93-.36-.56-.72a1.05,1.05,0,0,1,.11-.07l-.75-.46a.49.49,0,0,1-.16-.16l-1.56.29a10,10,0,0,1,2.55,3c.68,1.24,1.64,3.2,1.24,4.7.72,0,1.45,0,2.17-.11h.06C41.93,26.34,40.31,20.76,39.5,21.3Z"/><path class="cls-2" d="M41.55,19.21c-.68.15-2.16.43-2.84.56a5.81,5.81,0,0,1,.86.61c.13.11.57.54.56.66,1.56,1.39,3.7,4.86,3.68,6.44C46.87,26.15,43.12,21.14,41.55,19.21Z"/><path class="cls-1" d="M11.56,19.45c-1.48.14-2.92,1.78-3.81,2.83a8.8,8.8,0,0,0-2,4.53,10.31,10.31,0,0,1-1.31-1,.41.41,0,0,0,.33-.43,8.31,8.31,0,0,1,1.06-5.12,6.17,6.17,0,0,1,2.69-2.12A29.37,29.37,0,0,0,11.56,19.45Z"/><path class="cls-3" d="M58.37,24.52c.76,2.46.14,4-2,5.38-.63-.72-1.28-1.41-2-2a.61.61,0,0,0,.16-.12A41.34,41.34,0,0,1,58.37,24.52Z"/><path class="cls-3" d="M43.78,18.72c4,1.36,7.56,3.69,9,7.76a18.27,18.27,0,0,0-6.58-3.41.49.49,0,0,0-.17,0,12,12,0,0,0-2.68-4.24Z"/><path class="cls-3" d="M6.6,29.23c-1.63.31-3.23.6-4.78.85.08-1.38.23-2.75.35-4.12A11.4,11.4,0,0,0,6.6,29.23Z"/><path class="cls-2" d="M12.46,20.36a.74.74,0,0,1,.29-.08l.3-.34c-.38-.12-.75-.22-1.12-.35A.36.36,0,0,1,12,20c-.67,1.17-2.26,1.78-3.19,2.77a10.33,10.33,0,0,0-2.44,4.41,16.25,16.25,0,0,0,2.13.95C8.5,25.1,9.85,21.87,12.46,20.36Z"/><path class="cls-3" d="M28.61,21.25a48,48,0,0,1-15.35-1.68l-.15.25a4.32,4.32,0,0,1-.36.46s.59.9.57.94c-1.38,2.64-3.11,4.31-3.08,7.3,8.49-1.64,17.5-3.18,25.47-1.25C34.58,24,32,22.15,28.61,21.25Z"/><path class="cls-4" d="M62,21a.92.92,0,0,1-.33,1.25c-.56.34-1.1.7-1.63,1a.51.51,0,0,1-.22.29,5.7,5.7,0,0,1,.48,4.26,5.78,5.78,0,0,1-1.62,5.8c2.28,8.89-25.8,8.67-29.58,8.59-7-.15-14.76-.4-21.47-2.82C6.78,39.11,2,36.26,3.1,34.79,1.72,34.44.59,33.21,0,31.15a.34.34,0,0,1,.15-.4A14.57,14.57,0,0,1,1.86,25.5,5.8,5.8,0,0,1,1.18,24c-1-3.31.77-6,3.08-8.22a.62.62,0,0,1-.47-.69C5.64,3.43,22.1-.11,31.78,0,37.72.06,44,.92,49.31,3.65c3.56,1.81,8.82,5.41,8.88,9.93a1,1,0,0,1-.07.35A44.78,44.78,0,0,1,62,21Zm-2.48.49c.17-.12.34-.25.52-.36-.92-1.92-1.84-3.81-2.91-5.65a1,1,0,0,1-.66.43l-1.46.3A14.76,14.76,0,0,1,59.56,21.5Zm-3.21,8.4c2.16-1.35,2.78-2.92,2-5.38a41.34,41.34,0,0,0-3.82,3.21.61.61,0,0,1-.16.12C55.07,28.49,55.72,29.18,56.35,29.9Zm1.83,2a4.61,4.61,0,0,0,.56-1.62,9.46,9.46,0,0,1-2.11,1.5.88.88,0,0,1-1.09-.14,24.26,24.26,0,0,0-9.08-7.06,9.28,9.28,0,0,1-.15,3.84.86.86,0,0,1-.61.61,42.79,42.79,0,0,1-8.69.61.88.88,0,0,1-.85-.65.43.43,0,0,0,0-.05c-2-.1-3.87-.18-5.76-.21,1.21,2.82,3.24,3.13,5.63,1.55a.88.88,0,0,1,.65-.09c2.15.59,2.82,1,5.21.65a.81.81,0,0,1,.86.35c1.71,2.43,3.16.32,4-.6a.62.62,0,0,1,1,.22,8.59,8.59,0,0,0,2,1.59c1.5.72,2-.86,2.41-1.78a.78.78,0,0,1,1.33,0A5.19,5.19,0,0,0,56.36,33s0,0,0,0c-.39-1,1.1-1.63,1.7-.87A1.27,1.27,0,0,0,58.18,31.94Zm-.65-9c.29-.22.6-.41.9-.62a19.94,19.94,0,0,0-1.38-2.47,15.46,15.46,0,0,0-2.91-3.08.37.37,0,0,1-.14-.3c-.39.09-.77.16-1.17.24A12,12,0,0,1,57.53,22.91ZM56,24.1c.23-.19.48-.36.72-.55-.69-1.12-1.19-2.35-1.94-3.44a13.24,13.24,0,0,0-3-3.18l-1.93.43a10.11,10.11,0,0,1,3.83,2.47C54.65,20.91,56,22.53,56,24.1Zm-.58.48s0,0,0,0c-1.06-1.11-1.4-2.8-2.45-4a11.36,11.36,0,0,0-3.64-2.77.26.26,0,0,1-.15-.27l-2.88.65a12.88,12.88,0,0,1,8.09,7.36C54.68,25.2,55,24.89,55.4,24.58Zm.75-11.13c-1.15-1.74-1.89-3.55-3.59-5a21.62,21.62,0,0,0-4.65-3c.08,2.11-2,5.42-2.68,6.39-.46.65-1.71.73-1.88-.24A14.78,14.78,0,0,0,38.7,3.44a.74.74,0,0,1-.19-.71,42.06,42.06,0,0,0-5.37-.51,10.83,10.83,0,0,1,2.09,5,7.45,7.45,0,0,1-2.08,6.45.92.92,0,0,1-1.52-.4c-1.18-4-3.86-7.14-6.89-9.95a.54.54,0,0,1-.17-.56A32.82,32.82,0,0,0,14.12,6C16,8.92,18,11.69,19.93,14.59a7.06,7.06,0,0,0-.21-4.81c-.66-1.6-1.85-2.9-2.42-4.51a.58.58,0,0,1,.84-.64c3.93,2.43,4.7,8.39,2.69,12.19a.85.85,0,0,1-1.45,0c-1.94-3.49-4.49-6.7-6.19-10.32a20.16,20.16,0,0,0-8,8.24,36.06,36.06,0,0,0,3.95,1.69H9.4a.61.61,0,0,1,.41.23C25.24,21.9,40.21,15.08,56.15,13.45Zm.27,21.17a5.16,5.16,0,0,1-3.53-2.17C51.28,34.87,49.34,34,47.36,32c-.6,1.21-1.62,2.66-3,2.39-1.06-.2-2.34-2-3.22-1.91a10,10,0,0,1-2.49.21c-1.4-.14-1.82-.75-3.29,0a4.76,4.76,0,0,1-2.6.41c-2.19-.16-3.18-2.4-3.72-4.2a.82.82,0,0,1,0-.21c-1.18,0-2.35,0-3.52,0a.63.63,0,0,1,.16,1.06c-.87.79-2.26,2.48-3.5,2.7a3.72,3.72,0,0,1-2.89-.81c-.74,1.35-1.83,2.47-3.52,2.29a3.16,3.16,0,0,1-2.63-2.3c-.61,1.45-1.45,3-3.05,3.47-1.18.37-2.23-.82-3-1.67A5.58,5.58,0,0,1,4.68,34.8c.66,2.77,5.62,3.15,8,3.52A117,117,0,0,0,30.81,39.7C33.69,39.7,54.65,39.64,56.42,34.62Zm-3.63-8.14c-1.45-4.07-5-6.4-9-7.76l-.42.1A12,12,0,0,1,46,23.06a.49.49,0,0,1,.17,0A18.27,18.27,0,0,1,52.79,26.48ZM45.5,6.58c.15-.67.13-1.35.29-2a38.41,38.41,0,0,0-4.85-1.39,13.53,13.53,0,0,1,3.75,5.56A10,10,0,0,0,45.5,6.58Zm-1.69,20.9c3.06-1.33-.69-6.34-2.26-8.27-1.65.35-3.31.68-5,1a10,10,0,0,1,2.55,3c.68,1.24,1.64,3.2,1.24,4.7.72,0,1.45,0,2.17-.11h.06c-.67-1.43-2.29-7-3.1-6.47-.44.29-.93-.36-.56-.72C40.89,18.72,43.84,25.25,43.81,27.48Zm-5.72.43h1.13c-.55-1.25-.6-2.8-1.27-4a12.22,12.22,0,0,0-2.8-3.46c-1,.17-2.06.33-3.09.46a9.88,9.88,0,0,1,5,4.69C37.26,26,37.52,27.91,38.09,27.91Zm-2.38-.64c-1.13-3.24-3.74-5.12-7.1-6a40.66,40.66,0,0,1-16.68-1.66A.36.36,0,0,1,12,20c-.67,1.17-2.26,1.78-3.19,2.77a10.33,10.33,0,0,0-2.44,4.41,16.25,16.25,0,0,0,2.13.95c.05-3,1.4-6.21,4-7.72a.63.63,0,0,1,.86.86c-1.38,2.64-3.11,4.31-3.08,7.3C18.73,26.88,27.74,25.34,35.71,27.27Zm-3-16.16a5.76,5.76,0,0,0,.41-4.56c-.53-1.67-1.67-2.81-2.37-4.33-1.65,0-3.32.17-5,.37A22.79,22.79,0,0,1,32.73,11.11ZM23.12,29.89a7.52,7.52,0,0,1,1.57-1.07,65.56,65.56,0,0,0-7.51.74c-5.33.85-10.65,1.94-16,2.3.61,1.21,1.6,2.5,3.1,2a6.64,6.64,0,0,0,2.51-1.55.57.57,0,0,1,.88.12c.94,1.68,2.87,2.15,4,.32.26-.46.55-.92.85-1.36a.4.4,0,0,1,.69.08.23.23,0,0,1,.31-.09c.52.32,1,.73,1.56,1,1.73.84,2.58-.74,3.16-2.14a.84.84,0,0,1,1.39-.36C21.13,31.13,21.77,31,23.12,29.89ZM7.75,22.28c.89-1.05,2.33-2.69,3.81-2.83a29.37,29.37,0,0,1-3-1.28,6.17,6.17,0,0,0-2.69,2.12,8.31,8.31,0,0,0-1.06,5.12.41.41,0,0,1-.33.43,10.31,10.31,0,0,0,1.31,1A8.8,8.8,0,0,1,7.75,22.28Zm-.89-5c-.58-.33-1.14-.68-1.7-1.06-1.77,2.14-3.87,5.47-2,8.21a8.93,8.93,0,0,0,.66.81,8.32,8.32,0,0,1,.87-5.61A8.64,8.64,0,0,1,6.86,17.27Zm-5,12.81c1.55-.25,3.15-.54,4.78-.85A11.4,11.4,0,0,1,2.17,26C2.05,27.33,1.9,28.7,1.82,30.08Z"/><path class="cls-2" d="M60.08,21.14c-.18.11-.35.24-.52.36a14.76,14.76,0,0,0-4.51-5.28l1.46-.3a1,1,0,0,0,.66-.43C58.24,17.33,59.16,19.22,60.08,21.14Z"/><path class="cls-5" d="M58.74,30.32a4.61,4.61,0,0,1-.56,1.62,1.27,1.27,0,0,1-.13.19c-.6-.76-2.09-.13-1.7.87,0,0,0,0,0,0a5.19,5.19,0,0,1-2.9-2.36.78.78,0,0,0-1.33,0c-.44.92-.91,2.5-2.41,1.78a8.59,8.59,0,0,1-2-1.59.62.62,0,0,0-1-.22c-.84.92-2.29,3-4,.6a.81.81,0,0,0-.86-.35c-2.39.34-3.06-.06-5.21-.65a.88.88,0,0,0-.65.09c-2.39,1.58-4.42,1.27-5.63-1.55,1.89,0,3.8.11,5.76.21a.43.43,0,0,1,0,.05.88.88,0,0,0,.85.65,42.79,42.79,0,0,0,8.69-.61.86.86,0,0,0,.61-.61,9.28,9.28,0,0,0,.15-3.84,24.26,24.26,0,0,1,9.08,7.06.88.88,0,0,0,1.09.14A9.46,9.46,0,0,0,58.74,30.32Z"/><path class="cls-2" d="M55.35,24.55s0,0,0,0c-.36.31-.72.62-1.08,1a12.88,12.88,0,0,0-8.09-7.36l2.88-.65a.26.26,0,0,0,.15.27,11.36,11.36,0,0,1,3.64,2.77C54,21.75,54.29,23.44,55.35,24.55Z"/><path class="cls-6" d="M52.56,8.45c1.7,1.45,2.44,3.26,3.59,5C40.21,15.08,25.24,21.9,9.81,16.66a.61.61,0,0,0-.41-.23H9.18a36.06,36.06,0,0,1-3.95-1.69,20.16,20.16,0,0,1,8-8.24c1.7,3.62,4.25,6.83,6.19,10.32a.85.85,0,0,0,1.45,0c2-3.8,1.24-9.76-2.69-12.19a.58.58,0,0,0-.84.64c.57,1.61,1.76,2.91,2.42,4.51a7.06,7.06,0,0,1,.21,4.81C18,11.69,16,8.92,14.12,6A32.82,32.82,0,0,1,24.57,2.75a.54.54,0,0,0,.17.56c3,2.81,5.71,5.91,6.89,10a.92.92,0,0,0,1.52.4,7.45,7.45,0,0,0,2.08-6.45,10.83,10.83,0,0,0-2.09-5,42.06,42.06,0,0,1,5.37.51.74.74,0,0,0,.19.71,14.78,14.78,0,0,1,4.65,8.16c.17,1,1.42.89,1.88.24.7-1,2.76-4.28,2.68-6.39A21.62,21.62,0,0,1,52.56,8.45Z"/><path class="cls-6" d="M52.89,32.45a5.16,5.16,0,0,0,3.53,2.17c-1.77,5-22.73,5.08-25.61,5.08a117,117,0,0,1-18.12-1.38c-2.39-.37-7.35-.75-8-3.52A5.58,5.58,0,0,0,7.1,33.53c.75.85,1.8,2,3,1.67,1.6-.49,2.44-2,3.05-3.47A3.16,3.16,0,0,0,15.76,34c1.69.18,2.78-.94,3.52-2.29a3.72,3.72,0,0,0,2.89.81c1.24-.22,2.63-1.91,3.5-2.7a.63.63,0,0,0-.16-1.06c1.17,0,2.34,0,3.52,0a.82.82,0,0,0,0,.21c.54,1.8,1.53,4,3.72,4.2a4.76,4.76,0,0,0,2.6-.41c1.47-.79,1.89-.18,3.29,0a10,10,0,0,0,2.49-.21c.88-.13,2.16,1.71,3.22,1.91,1.37.27,2.39-1.18,3-2.39C49.34,34,51.28,34.87,52.89,32.45Z"/><path class="cls-6" d="M45.79,4.58c-.16.65-.14,1.33-.29,2a10,10,0,0,1-.81,2.17,13.53,13.53,0,0,0-3.75-5.56A38.41,38.41,0,0,1,45.79,4.58Z"/><path class="cls-2" d="M39.22,27.91H38.09c-.57,0-.83-1.93-1-2.34a9.88,9.88,0,0,0-5-4.69c1-.13,2.06-.29,3.09-.46A12.22,12.22,0,0,1,38,23.88C38.62,25.11,38.67,26.66,39.22,27.91Z"/><path class="cls-6" d="M33.14,6.55a5.76,5.76,0,0,1-.41,4.56A22.79,22.79,0,0,0,25.8,2.59c1.65-.2,3.32-.33,5-.37C31.47,3.74,32.61,4.88,33.14,6.55Z"/><path class="cls-5" d="M24.69,28.82a7.52,7.52,0,0,0-1.57,1.07c-1.35,1.14-2,1.24-3.55,0a.84.84,0,0,0-1.39.36c-.58,1.4-1.43,3-3.16,2.14-.54-.26-1-.67-1.56-1a.23.23,0,0,0-.31.09.4.4,0,0,0-.69-.08c-.3.44-.59.9-.85,1.36-1.11,1.83-3,1.36-4-.32a.57.57,0,0,0-.88-.12,6.64,6.64,0,0,1-2.51,1.55c-1.5.47-2.49-.82-3.1-2,5.39-.36,10.71-1.45,16-2.3A65.56,65.56,0,0,1,24.69,28.82Z"/><path class="cls-2" d="M5.16,16.21c.56.38,1.12.73,1.7,1.06A8.64,8.64,0,0,0,4.7,19.62a8.32,8.32,0,0,0-.87,5.61,8.93,8.93,0,0,1-.66-.81C1.29,21.68,3.39,18.35,5.16,16.21Z"/></g></g></svg>