<svg xmlns="http://www.w3.org/2000/svg" viewBox="0 0 97.24 48.54"><defs><style>.cls-1{fill:#c7b299;stroke-width:0.37px;}.cls-1,.cls-2,.cls-3{stroke:#c7b299;stroke-miterlimit:10;}.cls-2{fill:#435643;}.cls-2,.cls-3{stroke-width:0.58px;}.cls-3{fill:none;}</style></defs><title>Recurso 3</title><g id="Capa_2" data-name="Capa 2"><g id="Capa_1-2" data-name="Capa 1"><rect class="cls-1" x="0.18" y="44.98" width="96.87" height="2.89"/><polygon class="cls-2" points="4.24 45.72 9.87 27.35 22.3 12.32 33.29 3.35 46.59 0.46 62.21 3.93 73.2 12.03 84.48 26.78 90.81 45.72 4.24 45.72"/><polyline class="cls-3" points="21.62 13.15 15.8 27.21 10.02 27.21 6.51 45.72 15.8 27.21 15.8 45.72 24.47 30.39 30.03 45.72 38.35 27.21 47.61 46.29 56.28 27.21 65.25 46.29 69.87 28.94 79.42 46.29 79.42 27.21 88.09 46.29 84.62 27.21"/><polyline class="cls-3" points="33.44 3.21 38.64 4.66 47.32 0.32 56.57 4.08 62.35 3.79 73.34 11.88 79.42 26.63 84.62 26.63"/><polygon class="cls-3" points="73.34 11.88 56.57 4.08 38.64 4.66 22.45 11.88 29.39 15.35 15.8 27.21 24.47 30.39 38.35 27.21 56.28 27.21 69.87 28.94 79.42 26.63 65.25 15.93 73.34 11.88"/><polyline class="cls-3" points="24.47 30.39 29.39 15.35 47.32 12.46 38.64 4.66 29.39 15.35 38.64 27.21 47.32 12.46 56.28 26.63 65.25 15.93 69.87 28.94"/><polygon class="cls-3" points="56.57 4.08 47.32 12.46 65.25 15.93 56.57 4.08"/></g></g></svg>